<svg id="Iconly_Bold_Bag_2" data-name="Iconly/Bold/Bag 2" xmlns="http://www.w3.org/2000/svg" width="24" height="24" viewBox="0 0 24 24">
  <g id="Bag_2" data-name="Bag 2" transform="translate(2.5 2)">
    <path id="Bag_2-2" data-name="Bag 2" d="M14.123,20H4.877A4.945,4.945,0,0,1,0,15V9.48A4.95,4.95,0,0,1,4.877,4.47h.2A4.577,4.577,0,0,1,6.388,1.31,4.44,4.44,0,0,1,9.509,0a4.324,4.324,0,0,1,3.1,1.309A4.56,4.56,0,0,1,13.918,4.47h.2A4.95,4.95,0,0,1,19,9.48V15A4.945,4.945,0,0,1,14.123,20ZM13.207,5.66a.742.742,0,0,0-.732.75V7.57a.732.732,0,1,0,1.463,0V6.41A.742.742,0,0,0,13.207,5.66Zm-7.5,0a.751.751,0,0,0-.732.75V7.57a.732.732,0,1,0,1.463,0V6.41A.742.742,0,0,0,5.706,5.66Zm3.8-4.16a2.979,2.979,0,0,0-2.1.879A3.092,3.092,0,0,0,6.545,4.47h5.91A3,3,0,0,0,9.509,1.5Z" fill="#200e32"/>
  </g>
</svg>
