<svg id="Iconly_Light_Heart" data-name="Iconly/Light/Heart" xmlns="http://www.w3.org/2000/svg" width="24" height="24" viewBox="0 0 24 24">
  <g id="Heart" transform="translate(2.5 3)">
    <path id="Path_33961" d="M9.261,17.854a34.84,34.84,0,0,1-6.022-4.689A11.99,11.99,0,0,1,.373,8.6C-.7,5.25.554,1.421,4.071.288A5.978,5.978,0,0,1,9.5,1.2h0A5.987,5.987,0,0,1,14.921.288C18.438,1.421,19.7,5.25,18.628,8.6a11.99,11.99,0,0,1-2.866,4.57A34.84,34.84,0,0,1,9.74,17.854L9.505,18Z" transform="translate(0 0)" fill="none" stroke="#200e32" stroke-linecap="round" stroke-linejoin="round" stroke-miterlimit="10" stroke-width="1.5"/>
    <path id="Path_33964" d="M0,0A2.782,2.782,0,0,1,1.917,2.422" transform="translate(13.239 4.053)" fill="none" stroke="#200e32" stroke-linecap="round" stroke-linejoin="round" stroke-miterlimit="10" stroke-width="1.5"/>
  </g>
</svg>
