<svg xmlns="http://www.w3.org/2000/svg" width="18.477" height="20" viewBox="0 0 18.477 20">
  <path id="Login" d="M9.157,20a4.426,4.426,0,0,1-4.419-4.21l0-.214v-.942a.75.75,0,0,1,1.493-.1l.006.1v.942A2.925,2.925,0,0,0,8.985,18.5l.172.005h4.885a2.936,2.936,0,0,0,2.93-2.763l0-.173V4.425A2.924,2.924,0,0,0,14.224,1.5l-.172,0H9.168a2.933,2.933,0,0,0-2.93,2.761l-.005.173v.932a.75.75,0,0,1-1.493.1l-.006-.1V4.434A4.434,4.434,0,0,1,8.96,0l.209,0h4.883a4.425,4.425,0,0,1,4.421,4.217l0,.209V15.565A4.435,4.435,0,0,1,14.251,20l-.209,0Zm.175-6.555a.751.751,0,0,1-.071-.977l.073-.085,1.641-1.634H.75a.75.75,0,0,1-.1-1.493l.1-.006H10.975L9.334,7.615a.751.751,0,0,1-.075-.977l.073-.084a.75.75,0,0,1,.977-.075l.084.072,2.929,2.916a.749.749,0,0,1,.212.416V9.89l0,.012v.06q0,.019,0,.038h0q0,.008,0,.016v0s0,.01,0,.014v.1l0,.009,0,.009v.007l0,.012v0a.747.747,0,0,1-.127.274l0,.006a.755.755,0,0,1-.066.076l0,0-2.929,2.916a.749.749,0,0,1-1.06,0Z" fill="#200e32"/>
</svg>
