<svg id="Iconly_Bold_Search" data-name="Iconly/Bold/Search" xmlns="http://www.w3.org/2000/svg" width="24" height="24" viewBox="0 0 24 24">
  <g id="Search" transform="translate(2 2)">
    <path id="Search-2" data-name="Search" d="M17.741,19.608l-2.12-2.43a1.083,1.083,0,0,1,0-1.524.986.986,0,0,1,1.393,0l2.554,2.062h.045a1.348,1.348,0,0,1,0,1.892,1.315,1.315,0,0,1-1.872,0ZM0,8.67A8.624,8.624,0,0,1,8.578,0a8.531,8.531,0,0,1,6.065,2.54,8.716,8.716,0,0,1,2.512,6.13A8.624,8.624,0,0,1,8.578,17.34,8.624,8.624,0,0,1,0,8.67Z" fill="#200e32"/>
  </g>
</svg>
